<?xml version="1.0" standalone="no"?>
<!DOCTYPE svg PUBLIC "-//W3C//DTD SVG 20010904//EN"
 "http://www.w3.org/TR/2001/REC-SVG-20010904/DTD/svg10.dtd">
<svg version="1.0" xmlns="http://www.w3.org/2000/svg"
 width="1280.000000pt" height="1280.000000pt" viewBox="0 0 1280.000000 1280.000000"
 preserveAspectRatio="xMidYMid meet">
<metadata>
Created by potrace 1.15, written by Peter Selinger 2001-2017
</metadata>
<g transform="translate(0.000000,1280.000000) scale(0.100000,-0.100000)"
fill="#000000" stroke="none">
<path d="M4786 12547 c-22 -40 -52 -83 -66 -97 -39 -36 -93 -156 -98 -216 -2
-29 1 -68 7 -87 16 -47 79 -117 141 -157 27 -18 50 -34 50 -37 0 -5 -35 2 -67
14 -32 12 5 -25 54 -54 l44 -26 -7 -91 c-10 -144 -17 -167 -108 -415 -47 -129
-86 -246 -86 -261 0 -36 14 -46 80 -57 54 -8 55 -9 51 -38 -1 -17 -19 -79 -38
-140 -67 -211 -78 -315 -44 -392 42 -92 105 -99 376 -47 27 5 23 1 -29 -40
-33 -26 -103 -72 -157 -102 l-97 -55 -178 -11 c-99 -6 -195 -10 -214 -8 -19 3
-87 4 -150 4 -114 0 -210 -19 -251 -48 -15 -10 -36 -3 -126 41 -59 29 -314
126 -565 215 l-457 163 -40 57 c-74 102 -161 146 -676 343 -294 112 -450 178
-667 285 -77 39 -152 70 -166 70 -17 0 -37 14 -66 47 -151 174 -254 259 -396
327 -95 46 -157 53 -238 28 -143 -45 -324 -189 -381 -303 -45 -90 -56 -154
-42 -238 16 -98 27 -120 68 -126 18 -3 48 -7 66 -10 l33 -5 -10 -82 -9 -81 39
-34 c53 -45 130 -82 191 -92 55 -8 112 -3 274 28 58 11 162 22 230 25 l124 6
99 -108 c73 -79 142 -172 262 -354 215 -326 312 -427 485 -507 82 -39 230 -81
281 -81 36 0 71 -25 456 -322 229 -178 453 -347 496 -376 212 -142 451 -230
645 -236 l86 -3 46 -129 c121 -337 317 -732 619 -1244 114 -193 180 -331 180
-375 0 -6 -65 -20 -162 -34 -272 -38 -772 -144 -963 -202 -197 -61 -304 -141
-368 -276 -29 -64 -31 -75 -34 -203 -4 -162 7 -203 102 -398 110 -225 240
-421 466 -702 119 -147 187 -226 454 -525 239 -267 370 -438 472 -616 53 -94
183 -379 183 -401 0 -7 -25 -28 -54 -45 -83 -50 -200 -166 -261 -258 -118
-177 -231 -452 -274 -666 -63 -310 -40 -480 73 -557 108 -72 141 -43 240 213
94 239 202 410 361 571 99 101 206 171 333 220 210 80 238 97 276 177 67 137
24 395 -82 496 -26 25 -47 60 -66 111 -16 41 -62 150 -102 242 -109 249 -105
227 -114 643 -4 198 -11 376 -15 395 -3 19 13 -12 38 -70 63 -152 131 -279
222 -415 54 -80 90 -147 109 -200 246 -700 733 -1979 760 -1997 6 -4 79 -30
161 -57 226 -74 454 -121 671 -137 l91 -7 70 -106 c108 -161 162 -262 258
-478 104 -235 157 -343 197 -400 27 -40 29 -50 32 -160 6 -190 50 -333 154
-504 95 -155 167 -246 311 -389 216 -215 392 -321 511 -307 57 7 125 39 140
66 29 55 10 94 -124 264 -124 156 -190 263 -250 405 -102 242 -123 401 -86
642 13 87 20 162 16 189 -8 58 -46 121 -95 160 -43 34 -179 101 -205 101 -17
0 -139 234 -190 363 -26 66 -59 205 -51 217 2 4 30 12 62 20 32 7 121 33 198
57 861 276 1799 926 3130 2171 249 233 1215 1194 1215 1208 0 6 -57 16 -127
23 -359 35 -849 109 -1193 181 -1313 274 -2315 749 -3013 1430 -137 133 -317
329 -317 344 0 4 9 2 19 -4 61 -32 323 -132 393 -149 260 -64 618 -11 751 113
83 77 60 228 -79 511 -75 152 -145 249 -208 288 -36 22 -65 57 -131 157 -213
322 -425 541 -710 732 -259 173 -640 328 -806 328 -29 0 -48 4 -44 10 7 11
306 110 422 139 45 12 135 30 200 41 65 11 156 29 202 40 47 11 130 25 185 31
118 13 136 20 136 56 0 64 -170 175 -365 238 -162 52 -264 49 -454 -15 -211
-70 -521 -200 -725 -302 -65 -33 -83 -38 -102 -30 -12 6 -54 8 -97 5 l-74 -6
-100 94 c-55 52 -161 150 -236 219 l-137 125 0 97 c0 114 15 229 40 309 22 71
111 199 120 173 6 -15 14 -11 52 24 81 75 139 215 169 404 18 117 7 374 -20
466 -51 175 -135 286 -294 389 -199 129 -313 172 -477 180 -134 7 -216 -6
-391 -62 -238 -77 -342 -83 -401 -25 -30 30 -34 53 -18 96 19 49 5 34 -34 -39z
m454 -6967 c0 -5 -2 -10 -4 -10 -3 0 -8 5 -11 10 -3 6 -1 10 4 10 6 0 11 -4
11 -10z"/>
</g>
</svg>
